<svg version="1.1" xmlns="http://www.w3.org/2000/svg" viewBox="-2347.172880801425 -1560.075 7482.456376895175 2367.15"><desc>Created with Snap</desc><defs></defs><g><rect x="-2347.172880801425" y="-1560.075" width="7482.456376895175" height="2367.15" fill="#8f3985" style=""></rect><g transform="matrix(23.0695,0,0,23.0695,-2328.6009,-1541.5319)"><g><path d="M74.265,60.41c0.964,2.929,1.401,5.966,1.261,9.015c2.584-0.989,5.013-2.49,7.095-4.572c0.244-0.244,0.41-0.527,0.637-0.78   c0.018-0.341,0.105-0.659,0.105-1.004c0-2.924-0.646-5.691-1.764-8.203C79.522,57.139,77.045,59.022,74.265,60.41z" fill="#ffffff" style=""></path><path d="M54.863,81.605c2.509,1.112,5.276,1.759,8.2,1.759c0.349,0,0.664-0.085,1.004-0.103c0.253-0.227,0.541-0.393,0.781-0.637   c2.08-2.085,3.585-4.516,4.572-7.104c-3.049,0.14-6.086-0.292-9.01-1.257C59.022,77.049,57.137,79.528,54.863,81.605z" fill="#ffffff" style=""></path><path d="M40.588,74.265c-2.925,0.965-5.965,1.396-9.013,1.257c0.988,2.588,2.49,5.023,4.573,7.104   c0.242,0.244,0.528,0.41,0.779,0.637c0.339,0.018,0.661,0.103,1.003,0.103c2.926,0,5.691-0.646,8.202-1.759   C43.861,79.528,41.976,77.049,40.588,74.265z" fill="#ffffff" style=""></path><path d="M26.731,60.41c-2.781-1.388-5.26-3.271-7.337-5.545c-1.112,2.512-1.758,5.279-1.758,8.203c0,0.345,0.085,0.663,0.1,1.004   c0.229,0.253,0.395,0.536,0.639,0.78c2.082,2.082,4.515,3.583,7.098,4.572C25.333,66.376,25.767,63.339,26.731,60.41z" fill="#ffffff" style=""></path><path d="M26.731,40.592c-0.964-2.929-1.398-5.966-1.259-9.016c-2.583,0.989-5.014,2.491-7.098,4.572   c-0.244,0.245-0.41,0.528-0.639,0.781c-0.015,0.341-0.1,0.659-0.1,1.004c0,2.924,0.646,5.69,1.76,8.205   C21.471,43.863,23.95,41.979,26.731,40.592z" fill="#ffffff" style=""></path><path d="M46.132,19.397c-2.511-1.114-5.275-1.76-8.202-1.76c-0.342,0-0.664,0.084-1.003,0.102   c-0.251,0.228-0.537,0.393-0.779,0.638c-2.083,2.08-3.585,4.515-4.573,7.103c3.048-0.14,6.088,0.293,9.013,1.257   C41.976,23.952,43.861,21.475,46.132,19.397z" fill="#ffffff" style=""></path><path d="M60.41,26.736c2.924-0.964,5.961-1.396,9.01-1.257c-0.99-2.588-2.492-5.017-4.572-7.103   c-0.24-0.245-0.528-0.41-0.781-0.638c-0.34-0.018-0.659-0.102-1.004-0.102c-2.924,0-5.691,0.646-8.2,1.76   C57.137,21.475,59.022,23.952,60.41,26.736z" fill="#ffffff" style=""></path><path d="M82.621,36.148c-2.082-2.081-4.511-3.583-7.095-4.572c0.14,3.05-0.297,6.087-1.261,9.016   c2.78,1.388,5.257,3.271,7.334,5.547c1.117-2.515,1.764-5.281,1.764-8.205c0-0.345-0.088-0.663-0.105-1.004   C83.031,36.677,82.865,36.394,82.621,36.148z" fill="#ffffff" style=""></path><path d="M58.228,63.068c0-0.166-0.048-0.319-0.052-0.484c-1.061-0.21-2.09-0.498-3.099-0.834c-0.462,0.921-0.89,1.851-1.469,2.719   c0.113,0.122,0.19,0.267,0.309,0.384c1.143,1.14,2.404,2.069,3.718,2.881C57.993,66.228,58.228,64.683,58.228,63.068z" fill="#ffffff" style=""></path><path d="M43.362,67.733c1.313-0.812,2.574-1.741,3.715-2.881c0.12-0.117,0.199-0.262,0.312-0.384   c-0.581-0.868-1.008-1.798-1.471-2.719c-1.008,0.336-2.038,0.624-3.1,0.834c-0.002,0.165-0.048,0.318-0.048,0.484   C42.771,64.683,43.006,66.228,43.362,67.733z" fill="#ffffff" style=""></path><path d="M36.148,53.922c-1.139,1.14-2.068,2.4-2.88,3.717c1.503,0.355,3.051,0.59,4.663,0.59c0.166,0,0.318-0.044,0.484-0.048   c0.209-1.06,0.495-2.094,0.833-3.102c-0.918-0.463-1.848-0.886-2.716-1.471C36.411,53.726,36.269,53.805,36.148,53.922z" fill="#ffffff" style=""></path><path d="M38.415,42.821c-0.166-0.006-0.319-0.05-0.484-0.05c-1.612,0-3.159,0.236-4.663,0.591c0.812,1.318,1.739,2.578,2.88,3.717   c0.12,0.118,0.262,0.196,0.384,0.314c0.868-0.583,1.797-1.008,2.716-1.471C38.91,44.916,38.625,43.881,38.415,42.821z" fill="#ffffff" style=""></path><path d="M42.771,37.934c0,0.166,0.046,0.318,0.048,0.484c1.062,0.21,2.092,0.498,3.1,0.834c0.462-0.921,0.89-1.851,1.471-2.719   c-0.113-0.123-0.192-0.267-0.312-0.385c-1.141-1.139-2.402-2.066-3.715-2.879C43.006,34.774,42.771,36.319,42.771,37.934z" fill="#ffffff" style=""></path><path d="M57.635,33.27c-1.314,0.812-2.575,1.74-3.718,2.879c-0.118,0.118-0.195,0.262-0.309,0.385   c0.579,0.868,1.007,1.798,1.469,2.719c1.008-0.336,2.038-0.624,3.099-0.834c0.004-0.166,0.052-0.318,0.052-0.484   C58.228,36.319,57.993,34.774,57.635,33.27z" fill="#ffffff" style=""></path><path d="M63.063,42.771c-0.166,0-0.314,0.044-0.48,0.05c-0.209,1.06-0.498,2.095-0.838,3.102c0.921,0.463,1.851,0.888,2.719,1.471   c0.122-0.118,0.266-0.196,0.384-0.314c1.139-1.139,2.067-2.398,2.883-3.717C66.226,43.008,64.678,42.771,63.063,42.771z" fill="#ffffff" style=""></path><path d="M48.074,49.493c-0.035,0.676-0.035,1.339,0,2.012c0.452,0.502,0.921,0.969,1.42,1.423c0.671,0.034,1.335,0.034,2.007,0   c0.5-0.454,0.972-0.926,1.423-1.423c0.035-0.673,0.033-1.336,0-2.008c-0.451-0.502-0.921-0.969-1.42-1.423   c-0.673-0.035-1.34-0.035-2.012,0C48.995,48.528,48.524,48.995,48.074,49.493z" fill="#ffffff" style=""></path><path d="M64.464,53.608c-0.868,0.585-1.798,1.008-2.719,1.471c0.34,1.008,0.628,2.042,0.838,3.102   c0.166,0.004,0.314,0.048,0.48,0.048c1.615,0,3.163-0.234,4.668-0.59c-0.816-1.316-1.745-2.577-2.883-3.717   C64.73,53.805,64.586,53.726,64.464,53.608z" fill="#ffffff" style=""></path><path d="M72.271,55.926c2.583-1.327,4.827-3.173,6.615-5.425c-1.788-2.252-4.031-4.098-6.615-5.425   c-1.091,1.929-2.357,3.784-3.998,5.425C69.914,52.142,71.179,53.996,72.271,55.926z" fill="#ffffff" style=""></path><path d="M62.138,31.245c0.585,2.133,0.925,4.367,0.925,6.688c2.322,0,4.555,0.341,6.689,0.93c0.868-2.745,1.143-5.603,0.82-8.436   C67.74,30.104,64.879,30.375,62.138,31.245z" fill="#ffffff" style=""></path><path d="M50.498,22.11c-2.253,1.794-4.099,4.033-5.424,6.616c1.927,1.096,3.782,2.361,5.424,4.002   c1.644-1.641,3.498-2.906,5.426-4.002C54.597,26.144,52.752,23.904,50.498,22.11z" fill="#ffffff" style=""></path><path d="M37.931,37.934c0-2.321,0.34-4.556,0.927-6.688c-2.74-0.87-5.601-1.141-8.432-0.817c-0.323,2.833-0.05,5.69,0.817,8.436   C33.377,38.274,35.612,37.934,37.931,37.934z" fill="#ffffff" style=""></path><path d="M22.108,50.501c1.794,2.252,4.034,4.098,6.618,5.425c1.091-1.93,2.356-3.784,3.999-5.425   c-1.643-1.641-2.908-3.496-4.001-5.425C26.143,46.403,23.902,48.249,22.108,50.501z" fill="#ffffff" style=""></path><path d="M38.858,69.757c-0.587-2.133-0.927-4.367-0.927-6.688c-2.319,0-4.553-0.341-6.688-0.93   c-0.868,2.745-1.14,5.604-0.817,8.436C33.257,70.896,36.118,70.627,38.858,69.757z" fill="#ffffff" style=""></path><path d="M50.498,78.891c2.255-1.793,4.1-4.032,5.426-6.616c-1.929-1.095-3.782-2.36-5.426-4c-1.642,1.64-3.497,2.905-5.424,4   C46.401,74.858,48.245,77.098,50.498,78.891z" fill="#ffffff" style=""></path><path d="M63.063,63.068c0,2.321-0.34,4.556-0.925,6.688c2.741,0.87,5.602,1.139,8.435,0.817c0.323-2.832,0.048-5.695-0.82-8.436   C67.618,62.728,65.385,63.068,63.063,63.068z" fill="#ffffff" style=""></path><path d="M87.425,44.026c-0.571,2.304-1.457,4.476-2.614,6.475c1.157,1.999,2.043,4.177,2.614,6.475   C88.844,52.771,88.844,48.231,87.425,44.026z" fill="#ffffff" style=""></path><path d="M81.233,29.05c-1.981-4.041-5.244-7.301-9.286-9.282c1.249,2.063,2.147,4.268,2.745,6.541   C76.966,26.907,79.165,27.802,81.233,29.05z" fill="#ffffff" style=""></path><path d="M56.971,13.576c-4.204-1.418-8.742-1.418-12.947,0c2.3,0.571,4.473,1.453,6.473,2.614   C52.5,15.029,54.671,14.147,56.971,13.576z" fill="#ffffff" style=""></path><path d="M29.047,19.768c-4.042,1.981-7.301,5.241-9.284,9.282c2.066-1.248,4.268-2.143,6.541-2.741   C26.904,24.035,27.798,21.831,29.047,19.768z" fill="#ffffff" style=""></path><path d="M13.571,56.973c0.574-2.3,1.458-4.473,2.616-6.472c-1.159-1.999-2.04-4.171-2.616-6.472   C12.158,48.231,12.158,52.771,13.571,56.973z" fill="#ffffff" style=""></path><path d="M19.765,71.952c1.981,4.041,5.24,7.297,9.279,9.282c-1.248-2.068-2.141-4.269-2.741-6.542   C24.031,74.095,21.829,73.2,19.765,71.952z" fill="#ffffff" style=""></path><path d="M44.024,87.426c4.205,1.418,8.746,1.418,12.947,0c-2.3-0.572-4.472-1.453-6.474-2.614   C48.498,85.973,46.324,86.854,44.024,87.426z" fill="#ffffff" style=""></path><path d="M71.952,81.234c4.037-1.985,7.3-5.241,9.281-9.282c-2.068,1.248-4.267,2.143-6.541,2.74   C74.095,76.966,73.2,79.166,71.952,81.234z" fill="#ffffff" style=""></path></g><desc>Created with Snap</desc><defs></defs></g><g><g transform="matrix(1,0,0,-1,0,0)"><path d="M628 -1Q621 6 618 9Q615 13 614 18Q598 25 592 39Q587 53 576 64L576 77Q571 82 566 87Q562 92 557 96Q561 108 555 117Q549 127 547 138Q542 142 538 146Q535 151 533 157Q526 158 517 157Q508 157 499 156Q490 155 481 155Q473 156 468 161Q460 162 451 163Q443 164 435 166Q413 161 394 163Q375 165 361 159Q357 161 352 161Q347 162 344 166Q334 160 328 163Q323 166 313 166Q309 166 305 164Q301 163 297 161Q289 164 280 166Q272 168 263 168Q258 168 254 166Q251 164 247 164Q242 164 237 165Q233 167 228 164Q217 166 212 162Q207 159 202 164Q195 159 187 158Q179 157 173 153Q169 144 168 144Q167 144 166 142Q161 137 160 130Q160 124 152 122Q150 111 145 103Q140 95 135 86Q136 82 136 79Q137 76 137 72Q132 62 134 60Q136 59 135 57Q128 52 128 48Q128 45 123 47Q123 27 112 18Q101 10 90 -3Q82 -3 75 -5Q69 -6 61 -8Q55 -4 47 -2Q40 0 35 5Q29 20 25 23Q22 26 20 34Q25 47 32 55Q39 64 40 79Q42 83 45 86Q49 89 51 94Q53 98 53 102Q54 106 56 109Q63 117 64 121Q65 125 71 127Q69 138 76 141Q83 145 83 153Q83 163 79 171Q75 180 75 190Q75 197 78 200Q82 204 86 207Q91 210 95 213Q99 217 101 222L111 222Q119 232 124 244Q129 256 135 267Q137 271 136 276Q135 282 137 285Q144 293 143 296Q142 300 149 302Q148 311 150 314Q153 317 154 324Q157 328 160 330Q164 333 168 335L168 348Q172 350 174 353Q176 357 180 358Q181 362 180 364Q180 367 185 367Q187 371 186 374Q185 378 187 382Q189 387 193 390Q197 394 197 399Q195 400 195 402Q196 404 197 407Q199 410 199 413Q200 416 199 421Q203 424 204 427Q206 431 209 434Q207 444 209 451Q211 458 213 467Q220 470 223 475Q222 482 224 488Q226 495 228 501Q231 507 232 512Q233 518 230 525Q233 533 238 536Q244 540 242 551Q249 557 256 566Q264 576 261 586Q269 597 273 609Q277 622 275 636Q280 646 285 659Q291 672 290 683Q296 685 296 690Q297 696 299 701Q301 703 303 705Q306 708 306 712Q312 717 314 723Q317 730 321 735Q324 741 328 746Q332 751 335 757L349 757Q351 762 355 763Q360 765 365 765Q371 765 377 764Q383 764 387 766Q390 762 393 760Q397 758 400 756Q403 754 405 751Q407 748 406 742Q410 741 412 739Q414 737 418 737Q416 732 419 728Q423 725 423 720Q423 718 420 715Q418 712 418 707Q418 699 421 693Q424 687 428 681Q427 673 425 670Q423 668 428 660Q427 653 428 652Q429 651 430 650Q431 649 431 646Q432 644 432 638Q439 628 438 623Q438 619 445 618Q445 608 449 601Q454 594 461 588Q461 580 464 575Q467 570 466 562Q468 554 476 549Q474 542 475 535Q477 528 480 521Q483 515 486 508Q490 501 492 495Q498 470 505 451Q512 433 528 413Q527 411 528 406Q529 401 526 402Q530 397 537 385Q544 374 542 367Q549 355 549 346Q550 338 552 330Q560 322 563 311Q566 300 578 296Q576 282 584 267Q593 253 595 239Q603 231 607 220Q612 210 619 200Q618 195 618 187Q618 180 626 181Q625 175 627 171Q629 167 631 164Q634 161 636 158Q639 155 640 151Q648 143 652 140L652 122Q657 117 662 111Q668 105 676 103Q671 87 678 77Q685 67 685 59Q685 55 684 52Q683 50 683 47Q683 43 684 40Q685 38 685 35Q685 24 679 17Q673 10 664 6Q656 2 646 0Q636 -1 628 -1ZM430 397Q430 411 423 422Q417 434 418 447Q413 448 413 452Q413 457 409 458Q413 465 407 473Q402 482 404 493Q401 495 399 499Q397 503 395 506Q392 526 380 541Q369 557 364 575Q360 576 357 578Q355 580 352 582Q350 578 347 577Q344 577 342 575Q337 570 337 562Q338 554 330 547Q330 544 330 540Q330 536 333 534Q325 532 325 527Q325 522 323 517Q317 505 318 500Q319 496 318 491L309 475Q305 473 303 469Q301 466 299 462Q294 454 291 448Q288 443 290 432Q285 422 283 420Q281 418 280 415Q279 411 279 407Q280 403 280 400Q272 390 269 378Q266 366 266 354Q263 349 261 346Q260 344 259 342Q259 341 258 339Q258 337 256 332Q247 323 238 308Q230 293 230 285Q227 284 225 282Q223 280 221 278Q222 269 219 262Q217 256 216 248Q221 245 228 244Q235 243 240 248Q241 246 243 245Q246 245 249 245Q252 245 254 244Q257 244 256 241Q276 242 297 243Q318 244 337 237Q356 240 376 241Q397 242 416 237Q432 243 448 242Q464 241 480 244Q478 249 484 250Q490 251 490 261Q490 269 484 277Q479 285 476 293Q474 298 473 303Q473 308 471 313Q469 316 466 318Q463 320 461 324Q454 343 447 361Q441 380 430 397ZM1193 218Q1188 196 1190 174Q1193 152 1188 131Q1186 118 1178 107Q1171 96 1173 82Q1170 81 1165 77Q1161 73 1156 68Q1152 63 1148 58Q1145 54 1144 51Q1129 39 1118 30Q1108 21 1098 11Q1090 12 1082 11Q1075 10 1070 2Q1061 4 1052 1Q1044 -1 1034 -1Q1030 -1 1027 1Q1024 4 1019 4Q1016 4 1013 2Q1010 1 1007 1Q1002 1 996 2Q990 3 985 3Q983 3 977 1Q971 -1 964 -4Q958 -6 952 -9Q947 -12 946 -13Q934 -8 923 -3Q912 2 899 -1Q887 10 874 11Q862 12 848 14Q844 14 843 17Q843 21 843 24Q829 22 821 23Q813 25 807 29Q802 34 796 40Q791 46 782 52Q784 58 782 62Q781 67 778 71Q775 76 772 80Q770 85 771 93Q764 106 749 114Q748 119 746 122Q744 125 744 132Q744 138 740 139Q736 141 736 144Q741 153 748 159Q756 165 760 174Q768 171 771 172Q774 174 782 168Q784 166 789 163Q795 160 802 156Q809 152 815 149Q821 146 823 145Q825 133 832 127Q840 121 844 110Q849 108 852 106Q855 105 862 107Q864 103 868 101Q872 99 874 95Q889 97 897 93Q905 89 918 88Q920 85 922 82Q924 80 926 78Q940 79 956 78Q973 77 986 84Q991 79 996 81Q1001 83 1006 83Q1011 83 1015 80Q1020 78 1025 78Q1030 78 1034 79Q1039 80 1044 80Q1050 80 1050 85Q1051 90 1055 90Q1063 90 1071 97Q1080 104 1086 109Q1091 109 1092 112Q1094 116 1101 118Q1112 129 1112 142Q1113 155 1107 168Q1107 173 1110 177Q1114 182 1114 187Q1114 197 1107 207Q1100 217 1095 226Q1093 229 1091 229Q1089 230 1086 231Q1084 236 1082 236Q1081 237 1076 238Q1073 241 1067 245Q1061 249 1057 249Q1042 249 1041 252Q1041 255 1027 255Q1015 255 1003 250Q1000 252 994 254Q988 256 981 256Q975 257 969 256Q964 255 961 252Q959 254 953 257Q947 261 945 261Q914 261 888 268Q863 276 837 276Q824 282 821 284Q818 286 812 286Q807 292 803 297Q800 303 794 307Q794 316 790 323Q787 330 782 336Q778 342 774 348Q771 355 771 364Q764 376 756 384Q753 405 756 431Q759 458 776 473L776 489Q786 489 792 492Q799 496 804 501Q810 506 815 511Q821 516 829 519Q834 521 836 525Q838 529 840 534Q862 532 884 538Q906 545 928 549Q933 550 936 554Q939 558 943 561Q950 560 955 557Q961 555 967 554Q972 552 976 553Q980 555 985 555Q990 555 996 549Q1012 550 1020 544Q1028 538 1036 539Q1042 531 1052 527Q1062 523 1072 523Q1073 518 1077 516Q1081 514 1082 509Q1095 507 1101 498Q1108 490 1120 487Q1122 482 1124 479Q1127 477 1129 472Q1136 473 1137 471Q1139 469 1144 467Q1151 453 1156 435Q1151 427 1147 418Q1143 410 1135 405Q1109 405 1092 415Q1075 425 1058 444Q1053 446 1045 446Q1037 447 1034 450Q1024 459 1019 458Q1015 458 1010 460Q999 462 988 467Q977 472 965 472Q959 472 954 470Q950 468 945 467Q940 466 936 467Q933 468 928 468Q920 468 917 465Q915 462 913 462Q900 462 891 458Q883 454 877 452Q873 450 870 447Q867 445 866 440Q855 438 851 431Q847 425 839 422Q836 417 841 412Q837 406 839 402Q841 399 844 395Q848 392 852 387Q856 383 856 375Q856 368 862 366Q869 365 873 361Q878 357 886 352Q894 348 899 348Q902 348 904 349Q907 350 910 350Q917 350 922 347Q928 345 934 345Q937 345 940 345Q943 346 946 346Q957 346 965 342Q974 339 986 346Q999 339 1008 340Q1018 341 1024 337Q1027 335 1029 333Q1032 331 1035 331Q1038 331 1040 332Q1043 333 1045 333Q1049 333 1053 331Q1057 329 1060 334Q1066 327 1075 328Q1084 329 1092 328Q1095 323 1096 321Q1097 320 1096 313Q1105 314 1110 312Q1115 311 1118 308Q1122 305 1125 302Q1129 300 1135 299Q1138 290 1143 283Q1149 276 1159 274Q1162 266 1168 259Q1174 253 1181 248Q1182 231 1193 218ZM1738 7Q1732 8 1726 9Q1720 10 1714 10Q1710 4 1705 1Q1700 -1 1694 -3Q1688 0 1681 1Q1674 3 1674 12Q1663 13 1654 25Q1646 37 1644 47Q1642 49 1637 50Q1632 51 1630 53Q1623 57 1619 57Q1614 62 1611 69Q1608 76 1604 81Q1602 83 1600 84Q1598 86 1596 88Q1591 96 1591 102Q1592 109 1583 114Q1580 123 1582 130Q1577 136 1572 136Q1568 137 1566 139Q1560 147 1556 157Q1553 167 1546 175Q1543 178 1539 179Q1535 180 1534 185Q1533 192 1527 197Q1521 203 1513 210Q1506 217 1499 222Q1493 228 1492 229Q1489 227 1484 223Q1479 220 1474 215Q1470 211 1468 206Q1466 202 1469 198Q1461 193 1456 186Q1451 180 1443 177Q1439 172 1439 168Q1440 165 1441 160Q1427 158 1417 149Q1407 140 1396 133Q1400 119 1398 114Q1397 110 1397 105Q1397 97 1398 90Q1400 83 1400 76Q1400 66 1394 60Q1398 55 1397 48Q1397 42 1402 39Q1400 35 1398 33Q1396 31 1395 27Q1389 25 1384 22Q1380 20 1374 20Q1368 14 1361 9Q1355 5 1348 1Q1342 6 1335 7Q1328 8 1320 8Q1319 10 1310 19Q1302 29 1300 30Q1301 42 1298 53Q1295 65 1295 77Q1295 85 1298 92Q1302 100 1302 109Q1302 118 1301 126Q1300 135 1300 144Q1300 148 1301 151Q1303 155 1303 159Q1303 164 1300 168Q1298 172 1298 177Q1298 182 1299 186Q1301 190 1301 195Q1301 202 1295 207Q1296 212 1298 215Q1301 219 1303 224Q1296 244 1300 260Q1305 276 1305 296Q1305 300 1303 302Q1302 305 1300 309Q1305 316 1302 320Q1300 325 1298 330Q1301 333 1300 341Q1300 349 1300 353Q1302 358 1300 360Q1299 362 1298 367Q1302 372 1298 384Q1295 397 1295 405Q1295 409 1295 416Q1296 424 1296 432Q1296 440 1296 447Q1296 454 1295 458Q1294 461 1292 464Q1290 467 1290 471Q1290 477 1292 482Q1294 488 1293 493Q1298 497 1300 497Q1302 498 1307 497Q1309 503 1313 510Q1318 517 1326 517Q1330 517 1333 514Q1337 511 1340 509Q1343 507 1345 507Q1348 507 1351 512Q1356 509 1359 505Q1363 501 1370 500Q1372 492 1376 485Q1380 479 1380 472Q1380 467 1378 462Q1377 458 1377 453Q1377 450 1378 447Q1380 444 1380 440Q1380 434 1378 428Q1377 422 1377 416Q1377 409 1379 405Q1382 402 1382 397Q1383 389 1382 387Q1382 385 1387 378Q1388 374 1386 371Q1385 368 1385 364Q1385 359 1387 356Q1390 353 1390 350Q1390 347 1388 344Q1387 341 1387 338Q1387 313 1390 291Q1391 285 1393 279Q1395 274 1395 268Q1395 263 1393 257Q1392 251 1392 246Q1412 256 1424 272Q1426 280 1435 285Q1444 291 1448 299L1468 311Q1471 312 1474 316Q1477 321 1480 325Q1484 330 1487 333Q1491 336 1495 335Q1501 340 1508 347Q1516 355 1516 364Q1535 373 1550 392Q1565 412 1584 425Q1589 428 1588 432Q1588 436 1590 440Q1599 445 1607 455Q1616 465 1616 476Q1618 479 1621 478Q1624 478 1628 483Q1639 500 1652 505Q1666 511 1680 522Q1689 518 1697 513Q1706 509 1716 508Q1718 503 1719 496Q1721 490 1723 484Q1719 478 1721 473Q1715 467 1719 462L1715 452Q1712 449 1708 446Q1704 443 1706 438Q1702 436 1699 437Q1696 438 1692 435Q1685 430 1681 423Q1677 417 1672 410Q1668 404 1662 398Q1656 393 1647 392Q1643 385 1639 374Q1636 364 1632 359Q1628 357 1624 357Q1621 358 1617 355Q1607 348 1598 338Q1590 328 1583 319Q1575 313 1573 306Q1571 299 1566 294Q1572 288 1576 285Q1580 282 1583 279Q1587 276 1590 273Q1593 270 1593 268Q1595 257 1603 245Q1611 233 1620 222Q1629 211 1636 201Q1644 192 1644 187Q1644 185 1642 182Q1641 179 1640 175Q1640 172 1642 169Q1644 167 1651 167Q1661 156 1667 141Q1674 126 1686 119Q1688 116 1687 112Q1687 108 1689 105Q1700 104 1706 95Q1713 86 1723 84Q1727 81 1729 78Q1731 75 1733 70Q1741 65 1747 58Q1753 52 1760 46Q1763 33 1754 23Q1746 14 1738 7ZM2711 504Q2713 493 2712 481Q2712 469 2711 458Q2711 446 2708 438Q2706 431 2706 423Q2706 417 2708 411Q2711 406 2711 400Q2711 393 2709 385Q2708 378 2713 371Q2714 366 2710 365Q2707 364 2706 361Q2704 352 2705 344Q2707 336 2699 328Q2701 321 2704 319Q2700 316 2701 311Q2702 307 2702 303Q2702 300 2699 296Q2697 293 2697 291L2692 257L2697 248Q2692 243 2693 240Q2695 238 2695 235Q2695 233 2692 226Q2689 219 2688 216Q2686 206 2686 196Q2686 186 2686 177Q2686 174 2683 172Q2681 170 2679 168Q2680 151 2674 142Q2668 134 2668 121Q2668 116 2670 113Q2672 110 2674 105Q2678 94 2677 80Q2677 66 2677 55Q2677 50 2673 49Q2670 49 2668 47Q2668 43 2666 41Q2664 39 2663 36Q2656 34 2650 30Q2645 26 2640 21Q2635 19 2632 21Q2629 24 2624 23Q2620 19 2622 15Q2625 12 2624 8Q2619 6 2616 2Q2613 -1 2608 -3Q2603 -2 2596 -1Q2590 1 2584 3Q2579 6 2575 10Q2571 14 2570 21Q2562 24 2554 29Q2547 34 2538 36Q2537 39 2538 41Q2540 43 2540 45Q2540 48 2538 52Q2536 56 2529 62Q2531 68 2524 73Q2517 78 2515 81Q2511 90 2507 92Q2504 94 2502 96Q2500 106 2492 119Q2484 133 2474 135Q2473 143 2468 150Q2463 158 2461 166Q2459 170 2455 172Q2451 175 2447 177Q2448 184 2446 186Q2444 188 2442 190Q2440 193 2439 197Q2439 201 2436 205Q2432 214 2428 215Q2424 216 2422 218Q2422 226 2419 230Q2417 235 2414 238Q2411 242 2408 246Q2406 250 2406 257Q2404 259 2399 264Q2395 270 2389 276Q2384 282 2379 287Q2375 292 2374 293Q2375 301 2372 302Q2369 304 2367 306Q2365 310 2366 313Q2367 317 2363 322Q2362 336 2355 344Q2349 353 2347 361Q2345 365 2346 369Q2347 374 2345 378Q2343 380 2340 382Q2338 384 2340 391Q2338 395 2334 397Q2331 400 2329 404Q2327 408 2326 411Q2326 415 2324 419Q2322 421 2320 423Q2319 425 2317 428Q2313 441 2309 444Q2306 447 2304 452Q2302 454 2302 457Q2303 460 2301 462Q2295 470 2295 474Q2295 478 2288 480Q2288 488 2284 496Q2280 505 2272 508Q2272 516 2268 520Q2265 524 2261 530Q2258 538 2253 544Q2249 550 2245 558Q2241 557 2242 552Q2243 548 2238 549Q2243 541 2242 530Q2242 520 2242 511Q2242 506 2244 501Q2246 496 2247 491Q2245 481 2245 477Q2246 474 2242 469Q2242 465 2244 462Q2247 460 2247 457Q2247 454 2245 449Q2243 445 2247 443Q2245 429 2248 420Q2251 411 2251 402Q2249 386 2250 379Q2251 372 2251 365Q2251 361 2253 358Q2256 356 2258 354Q2257 351 2256 346Q2256 342 2251 341Q2254 339 2254 336Q2254 333 2254 330Q2254 327 2257 323Q2261 320 2261 316Q2260 303 2263 302Q2264 297 2261 297Q2258 297 2258 293Q2260 289 2261 285Q2263 281 2265 276Q2265 261 2261 246Q2258 232 2258 218Q2258 213 2259 208Q2261 203 2261 198Q2261 192 2256 185Q2260 170 2260 151Q2260 147 2263 146Q2267 145 2267 141Q2267 130 2264 117Q2262 105 2270 96Q2268 94 2268 89Q2268 85 2265 83Q2264 78 2268 77Q2272 77 2270 73Q2267 70 2266 65Q2266 60 2266 55Q2266 50 2265 45Q2265 41 2261 38Q2265 28 2261 20Q2258 13 2251 5Q2242 4 2241 10Q2241 16 2238 21Q2229 19 2220 16Q2211 13 2206 5Q2188 3 2178 9Q2168 16 2168 27Q2168 33 2169 39Q2171 45 2172 51Q2173 62 2172 75Q2172 88 2176 99Q2173 101 2173 106Q2173 111 2170 114Q2171 115 2172 121Q2174 127 2174 133Q2175 140 2175 146Q2176 152 2176 155Q2176 160 2174 165Q2173 171 2173 176Q2171 192 2175 199Q2179 206 2179 213Q2179 216 2177 218Q2176 221 2176 224Q2176 227 2177 229Q2179 232 2179 235Q2179 238 2176 240Q2174 243 2174 246Q2174 250 2174 254Q2175 258 2179 261Q2176 264 2175 269Q2174 274 2173 278Q2173 283 2172 287Q2171 291 2167 293Q2169 306 2170 320Q2172 334 2165 345Q2170 356 2170 373Q2170 391 2165 402Q2168 409 2169 417Q2170 426 2170 434Q2170 440 2167 445Q2165 451 2165 455Q2167 462 2166 463Q2165 465 2165 467Q2165 470 2165 478Q2165 486 2167 488Q2167 491 2165 493Q2163 496 2163 499Q2163 502 2164 504Q2165 507 2165 510Q2165 514 2164 517Q2163 520 2163 523Q2163 533 2164 543Q2166 553 2160 562Q2164 568 2165 571Q2164 574 2163 577Q2163 580 2158 579Q2163 586 2163 599Q2163 621 2158 634Q2153 648 2152 658Q2151 669 2158 680Q2165 691 2190 709Q2201 708 2212 708Q2224 708 2233 701Q2236 688 2238 685Q2241 683 2242 677Q2253 672 2264 669Q2275 667 2286 662Q2290 659 2292 655Q2295 652 2299 649Q2302 642 2303 635Q2304 628 2313 625Q2312 616 2314 612Q2317 609 2320 601Q2322 597 2322 592Q2323 587 2329 588Q2328 583 2329 580Q2330 578 2331 573Q2336 566 2339 562Q2342 559 2345 551Q2347 546 2352 544Q2357 542 2356 534Q2364 528 2365 523Q2366 518 2363 519Q2368 513 2374 508L2374 495Q2375 493 2378 487Q2382 482 2386 476Q2390 470 2393 465Q2397 461 2399 460Q2396 458 2398 453Q2400 449 2399 445Q2401 440 2404 437Q2407 434 2411 430Q2412 423 2415 416Q2418 410 2424 406Q2426 401 2423 400Q2421 399 2420 395Q2430 387 2435 375Q2441 363 2452 354Q2457 340 2461 334Q2465 329 2470 324Q2469 316 2473 314Q2477 313 2479 311Q2477 303 2481 297Q2485 292 2490 287Q2494 283 2494 277Q2495 272 2497 267Q2503 263 2503 260Q2503 258 2506 257Q2506 252 2506 245Q2507 238 2515 237L2515 226Q2524 221 2530 213Q2537 205 2547 200Q2550 192 2554 183Q2558 174 2568 170Q2570 162 2574 155Q2579 149 2583 142Q2586 143 2587 148Q2588 153 2588 160Q2589 167 2590 175Q2592 183 2597 190L2597 205Q2599 210 2601 214Q2604 219 2608 222Q2603 228 2605 234Q2608 241 2608 248Q2608 251 2607 254Q2606 258 2606 261Q2606 284 2612 306Q2619 329 2619 352Q2619 360 2616 366Q2613 373 2613 380Q2613 389 2617 397Q2622 406 2622 413Q2620 425 2622 429Q2625 434 2625 439Q2625 443 2622 445Q2620 447 2620 452Q2620 456 2623 458Q2626 461 2627 465Q2623 472 2625 479Q2627 487 2624 493Q2626 506 2623 507Q2621 508 2620 517Q2618 529 2620 541Q2623 554 2623 567Q2623 578 2615 582Q2618 588 2616 595Q2615 602 2615 609Q2615 616 2618 621Q2621 626 2621 631Q2625 634 2625 637Q2625 640 2627 642Q2628 656 2626 670Q2625 685 2624 699Q2631 699 2636 704Q2641 710 2645 714Q2650 719 2655 721Q2661 724 2670 718Q2676 717 2678 720Q2681 723 2686 722Q2691 718 2696 715Q2701 713 2706 709Q2705 702 2709 698Q2713 695 2715 690Q2717 684 2716 677Q2715 670 2715 664Q2715 661 2716 658Q2718 656 2718 653Q2718 641 2713 629Q2709 618 2709 605Q2710 601 2708 599Q2706 598 2706 595Q2706 587 2708 587Q2711 588 2713 584Q2709 579 2711 571Q2713 564 2709 560Q2711 558 2710 552Q2710 547 2715 547Q2710 542 2712 532Q2714 522 2718 517Q2718 511 2716 509Q2714 508 2711 504ZM3740 -1Q3733 6 3730 9Q3727 13 3726 18Q3710 25 3704 39Q3699 53 3688 64L3688 77Q3683 82 3678 87Q3674 92 3669 96Q3673 108 3667 117Q3661 127 3659 138Q3654 142 3650 146Q3647 151 3645 157Q3638 158 3629 157Q3620 157 3611 156Q3602 155 3593 155Q3585 156 3580 161Q3572 162 3563 163Q3555 164 3547 166Q3525 161 3506 163Q3487 165 3473 159Q3469 161 3464 161Q3459 162 3456 166Q3446 160 3440 163Q3435 166 3425 166Q3421 166 3417 164Q3413 163 3409 161Q3401 164 3392 166Q3384 168 3375 168Q3370 168 3366 166Q3363 164 3359 164Q3354 164 3349 165Q3345 167 3340 164Q3329 166 3324 162Q3319 159 3314 164Q3307 159 3299 158Q3291 157 3285 153Q3281 144 3280 144Q3279 144 3278 142Q3273 137 3272 130Q3272 124 3264 122Q3262 111 3257 103Q3252 95 3247 86Q3248 82 3248 79Q3249 76 3249 72Q3244 62 3246 60Q3248 59 3247 57Q3240 52 3240 48Q3240 45 3235 47Q3235 27 3224 18Q3213 10 3202 -3Q3194 -3 3187 -5Q3181 -6 3173 -8Q3167 -4 3159 -2Q3152 0 3147 5Q3141 20 3137 23Q3134 26 3132 34Q3137 47 3144 55Q3151 64 3152 79Q3154 83 3157 86Q3161 89 3163 94Q3165 98 3165 102Q3166 106 3168 109Q3175 117 3176 121Q3177 125 3183 127Q3181 138 3188 141Q3195 145 3195 153Q3195 163 3191 171Q3187 180 3187 190Q3187 197 3190 200Q3194 204 3198 207Q3203 210 3207 213Q3211 217 3213 222L3223 222Q3231 232 3236 244Q3241 256 3247 267Q3249 271 3248 276Q3247 282 3249 285Q3256 293 3255 296Q3254 300 3261 302Q3260 311 3262 314Q3265 317 3266 324Q3269 328 3272 330Q3276 333 3280 335L3280 348Q3284 350 3286 353Q3288 357 3292 358Q3293 362 3292 364Q3292 367 3297 367Q3299 371 3298 374Q3297 378 3299 382Q3301 387 3305 390Q3309 394 3309 399Q3307 400 3307 402Q3308 404 3309 407Q3311 410 3311 413Q3312 416 3311 421Q3315 424 3316 427Q3318 431 3321 434Q3319 444 3321 451Q3323 458 3325 467Q3332 470 3335 475Q3334 482 3336 488Q3338 495 3340 501Q3343 507 3344 512Q3345 518 3342 525Q3345 533 3350 536Q3356 540 3354 551Q3361 557 3368 566Q3376 576 3373 586Q3381 597 3385 609Q3389 622 3387 636Q3392 646 3397 659Q3403 672 3402 683Q3408 685 3408 690Q3409 696 3411 701Q3413 703 3415 705Q3418 708 3418 712Q3424 717 3426 723Q3429 730 3433 735Q3436 741 3440 746Q3444 751 3447 757L3461 757Q3463 762 3467 763Q3472 765 3477 765Q3483 765 3489 764Q3495 764 3499 766Q3502 762 3505 760Q3509 758 3512 756Q3515 754 3517 751Q3519 748 3518 742Q3522 741 3524 739Q3526 737 3530 737Q3528 732 3531 728Q3535 725 3535 720Q3535 718 3532 715Q3530 712 3530 707Q3530 699 3533 693Q3536 687 3540 681Q3539 673 3537 670Q3535 668 3540 660Q3539 653 3540 652Q3541 651 3542 650Q3543 649 3543 646Q3544 644 3544 638Q3551 628 3550 623Q3550 619 3557 618Q3557 608 3561 601Q3566 594 3573 588Q3573 580 3576 575Q3579 570 3578 562Q3580 554 3588 549Q3586 542 3587 535Q3589 528 3592 521Q3595 515 3598 508Q3602 501 3604 495Q3610 470 3617 451Q3624 433 3640 413Q3639 411 3640 406Q3641 401 3638 402Q3642 397 3649 385Q3656 374 3654 367Q3661 355 3661 346Q3662 338 3664 330Q3672 322 3675 311Q3678 300 3690 296Q3688 282 3696 267Q3705 253 3707 239Q3715 231 3719 220Q3724 210 3731 200Q3730 195 3730 187Q3730 180 3738 181Q3737 175 3739 171Q3741 167 3743 164Q3746 161 3748 158Q3751 155 3752 151Q3760 143 3764 140L3764 122Q3769 117 3774 111Q3780 105 3788 103Q3783 87 3790 77Q3797 67 3797 59Q3797 55 3796 52Q3795 50 3795 47Q3795 43 3796 40Q3797 38 3797 35Q3797 24 3791 17Q3785 10 3776 6Q3768 2 3758 0Q3748 -1 3740 -1ZM3542 397Q3542 411 3535 422Q3529 434 3530 447Q3525 448 3525 452Q3525 457 3521 458Q3525 465 3519 473Q3514 482 3516 493Q3513 495 3511 499Q3509 503 3507 506Q3504 526 3492 541Q3481 557 3476 575Q3472 576 3469 578Q3467 580 3464 582Q3462 578 3459 577Q3456 577 3454 575Q3449 570 3449 562Q3450 554 3442 547Q3442 544 3442 540Q3442 536 3445 534Q3437 532 3437 527Q3437 522 3435 517Q3429 505 3430 500Q3431 496 3430 491L3421 475Q3417 473 3415 469Q3413 466 3411 462Q3406 454 3403 448Q3400 443 3402 432Q3397 422 3395 420Q3393 418 3392 415Q3391 411 3391 407Q3392 403 3392 400Q3384 390 3381 378Q3378 366 3378 354Q3375 349 3373 346Q3372 344 3371 342Q3371 341 3370 339Q3370 337 3368 332Q3359 323 3350 308Q3342 293 3342 285Q3339 284 3337 282Q3335 280 3333 278Q3334 269 3331 262Q3329 256 3328 248Q3333 245 3340 244Q3347 243 3352 248Q3353 246 3355 245Q3358 245 3361 245Q3364 245 3366 244Q3369 244 3368 241Q3388 242 3409 243Q3430 244 3449 237Q3468 240 3488 241Q3509 242 3528 237Q3544 243 3560 242Q3576 241 3592 244Q3590 249 3596 250Q3602 251 3602 261Q3602 269 3596 277Q3591 285 3588 293Q3586 298 3585 303Q3585 308 3583 313Q3581 316 3578 318Q3575 320 3573 324Q3566 343 3559 361Q3553 380 3542 397ZM4040 531Q4049 530 4057 532Q4066 535 4075 537Q4089 540 4105 540Q4122 541 4136 541Q4152 541 4167 538Q4182 535 4197 533Q4213 532 4228 528Q4243 524 4258 520Q4267 517 4275 512Q4283 508 4291 503Q4295 491 4292 475Q4290 459 4280 450Q4274 451 4269 450Q4264 450 4259 444Q4256 445 4255 448Q4254 452 4249 453Q4244 455 4239 454Q4235 453 4230 454Q4223 455 4216 456Q4210 458 4203 460Q4201 459 4195 460Q4190 461 4184 462Q4178 463 4173 463Q4168 464 4167 462Q4164 462 4162 466Q4161 470 4156 470Q4145 470 4136 469Q4127 468 4116 470Q4107 468 4102 463Q4097 458 4086 460Q4081 458 4078 455Q4075 452 4073 448Q4062 449 4055 445Q4048 441 4042 436Q4037 431 4032 426Q4028 421 4022 420Q4017 401 4002 392Q4000 384 4001 380Q3996 379 3994 378Q3993 377 3988 378Q3982 357 3967 344L3967 333Q3962 331 3963 327Q3964 323 3956 323Q3960 315 3954 305Q3949 295 3947 286Q3942 281 3942 273Q3943 266 3937 259Q3943 247 3942 233Q3942 219 3942 205Q3942 200 3945 199Q3948 198 3952 196Q3950 188 3952 181Q3954 175 3957 169Q3960 163 3963 157Q3967 151 3967 144Q3975 134 3986 129Q3997 125 4008 122Q4011 120 4012 118Q4014 117 4015 112Q4024 112 4032 109Q4041 106 4051 106Q4063 107 4066 104Q4070 102 4077 102Q4082 102 4083 105Q4085 108 4089 110Q4103 103 4123 100Q4143 97 4157 107Q4161 107 4164 106Q4167 105 4170 105Q4174 105 4176 106Q4178 108 4181 110Q4184 111 4192 112Q4201 113 4210 114Q4220 115 4228 115Q4237 115 4241 115Q4248 118 4252 123Q4256 129 4260 135Q4271 138 4274 133Q4278 129 4287 129Q4292 129 4293 131Q4295 134 4299 135Q4302 130 4305 126Q4309 122 4315 120Q4315 113 4316 106Q4318 99 4324 94Q4321 90 4314 85Q4307 81 4300 76Q4294 71 4288 66Q4283 61 4283 56Q4283 52 4284 50Q4285 49 4283 45Q4280 43 4276 42Q4273 41 4273 36Q4261 37 4251 35Q4241 34 4231 31Q4221 28 4211 25Q4202 23 4191 23Q4189 26 4184 25Q4179 25 4173 23Q4168 22 4162 20Q4157 18 4154 18Q4149 18 4144 19Q4139 21 4134 21Q4126 21 4119 20Q4113 19 4105 19Q4087 19 4084 25Q4081 31 4075 31Q4069 31 4068 27Q4068 24 4064 21Q4053 25 4040 30Q4028 35 4016 29Q4011 36 4003 36Q3995 36 3991 43Q3984 43 3978 44Q3972 46 3965 46Q3965 49 3963 50Q3962 51 3960 51Q3959 52 3958 53Q3957 54 3958 58Q3951 57 3947 58Q3944 60 3941 62Q3938 64 3934 65Q3930 67 3924 66Q3921 77 3907 82Q3904 89 3900 95Q3896 102 3888 104Q3886 116 3881 127Q3876 138 3873 150Q3871 155 3869 156Q3867 157 3863 160Q3866 173 3863 184Q3860 196 3856 208Q3852 218 3853 227Q3855 237 3848 247Q3853 264 3856 286Q3860 308 3873 322Q3875 331 3870 332Q3865 333 3866 337Q3873 345 3879 349Q3885 354 3886 367Q3894 374 3896 384Q3899 395 3905 403Q3910 406 3914 409Q3919 413 3924 416Q3942 438 3960 454Q3959 459 3961 460Q3963 462 3963 467Q3969 469 3969 472Q3970 476 3979 474Q3981 481 3987 487Q3994 494 4001 499Q4009 505 4015 509Q4021 514 4022 519Q4030 518 4032 522Q4035 526 4040 531ZM4827 487Q4821 482 4814 472Q4808 462 4802 460Q4800 459 4797 459Q4794 460 4791 460Q4786 460 4784 458Q4782 456 4778 455Q4771 459 4764 460Q4757 461 4750 465Q4744 465 4741 462Q4738 459 4733 459Q4728 459 4723 461Q4719 463 4715 458Q4696 464 4676 466Q4657 469 4638 474Q4630 470 4622 470Q4615 471 4607 469Q4604 468 4601 466Q4598 465 4595 465Q4591 465 4588 466Q4585 467 4581 467Q4575 467 4569 464Q4563 462 4557 462Q4552 462 4549 464Q4546 467 4541 462Q4538 467 4534 464Q4531 462 4528 460Q4512 460 4506 461Q4501 463 4494 462Q4494 455 4494 442Q4494 429 4494 415Q4495 402 4495 390Q4495 379 4494 375Q4497 368 4504 368Q4512 368 4517 368Q4531 362 4545 361Q4560 361 4574 361Q4579 361 4582 362Q4586 363 4591 363Q4595 363 4603 361Q4612 360 4620 359Q4629 359 4635 361Q4642 363 4642 371Q4653 373 4657 367Q4662 361 4667 361Q4672 361 4674 365Q4676 369 4680 371Q4684 371 4685 367Q4686 364 4693 364Q4699 364 4706 368Q4714 373 4722 363Q4729 361 4732 363Q4735 365 4741 366Q4748 354 4757 343Q4766 333 4771 320Q4768 320 4764 317Q4760 314 4757 309Q4754 305 4752 301Q4750 297 4751 294Q4745 289 4738 284Q4732 280 4724 280Q4716 280 4714 283Q4713 286 4708 286Q4703 286 4699 284Q4696 283 4692 283Q4687 283 4681 284Q4676 286 4670 286Q4663 286 4656 283Q4650 281 4643 281Q4638 281 4634 283Q4631 285 4627 286Q4620 287 4614 287Q4608 288 4601 288Q4596 288 4592 285Q4589 283 4584 283Q4579 283 4573 284Q4568 286 4563 286Q4559 286 4556 285Q4553 284 4550 284Q4532 282 4521 280Q4510 279 4499 276Q4500 265 4500 254Q4501 243 4506 233Q4506 230 4503 229Q4501 228 4501 223Q4509 213 4510 201Q4512 190 4511 178Q4510 166 4509 154Q4508 142 4513 130Q4510 122 4508 115Q4507 109 4508 101Q4515 91 4526 91Q4531 91 4535 91Q4539 92 4544 92Q4548 92 4551 91Q4554 90 4558 90Q4570 90 4582 91Q4594 93 4606 93Q4610 93 4613 92Q4617 92 4621 92Q4628 92 4634 93Q4641 95 4648 95Q4653 95 4657 93Q4661 92 4666 92Q4675 92 4683 95Q4692 98 4701 98Q4703 98 4706 97Q4709 97 4711 97Q4716 97 4718 101Q4720 106 4722 107Q4727 108 4732 109Q4737 110 4742 111Q4746 112 4748 108Q4751 105 4752 102Q4761 101 4766 96Q4772 91 4780 90Q4782 85 4785 81Q4788 78 4793 78Q4791 70 4795 61Q4789 59 4784 54Q4780 49 4775 47Q4776 41 4777 35Q4778 30 4777 23Q4775 21 4771 21Q4768 22 4765 22Q4758 22 4756 17Q4755 13 4750 13Q4747 15 4742 15Q4737 15 4732 15Q4727 15 4722 15Q4718 15 4715 17Q4709 17 4705 14Q4701 12 4697 8Q4687 12 4678 9Q4670 6 4662 1Q4658 5 4654 5Q4651 5 4646 4Q4646 7 4643 9Q4641 12 4640 15Q4623 12 4606 13Q4589 15 4572 10Q4563 15 4550 15Q4538 15 4529 8Q4521 12 4512 8Q4503 5 4494 5Q4481 8 4478 5Q4476 3 4473 3Q4468 3 4463 3Q4459 3 4454 5Q4449 12 4445 12Q4442 12 4438 14Q4437 22 4429 29Q4421 36 4416 41Q4419 43 4422 44Q4426 46 4426 50Q4419 60 4418 64Q4418 68 4418 72Q4419 77 4418 81Q4418 86 4414 89Q4424 92 4424 96Q4424 110 4420 122Q4416 134 4416 148Q4424 156 4423 159Q4423 163 4423 173Q4423 184 4424 193Q4426 203 4417 211Q4419 221 4417 230Q4416 240 4416 250Q4416 262 4418 273Q4421 285 4421 297Q4421 304 4418 307Q4416 310 4416 313Q4419 326 4417 329Q4415 333 4414 338Q4412 353 4413 369Q4415 385 4415 401Q4415 412 4411 426Q4408 440 4410 446Q4408 449 4407 453Q4406 457 4402 459Q4408 467 4401 473Q4395 480 4395 488Q4395 497 4398 503Q4402 509 4398 519Q4407 523 4418 526Q4423 531 4424 534Q4425 538 4435 538Q4452 538 4468 535Q4484 533 4501 530Q4505 531 4508 531Q4511 532 4514 534Q4522 530 4529 530Q4536 531 4542 533Q4549 535 4555 537Q4562 540 4569 540Q4577 540 4584 538Q4591 537 4599 537Q4625 537 4651 540Q4678 544 4704 542Q4713 537 4711 533Q4715 535 4718 536Q4722 537 4727 537Q4739 537 4754 536Q4770 536 4781 533Q4787 527 4791 526Q4796 524 4800 522Q4804 521 4809 519Q4813 517 4816 515Q4820 514 4824 512Q4831 502 4826 497Q4822 493 4827 487Z" fill="#ffffff" style=""></path></g></g></g></svg>